<?xml version="1.0" encoding="UTF-8"?>
<svg id="Layer_1" data-name="Layer 1" xmlns="http://www.w3.org/2000/svg" xmlns:xlink="http://www.w3.org/1999/xlink" viewBox="0 0 1920 1080">
  <defs>
    <style>
      .cls-1 {
        fill: #fff;
        stroke-width: 0px;
      }

      .cls-2 {
        filter: url(#AI_BevelShadow_1);
      }
    </style>
    <filter id="AI_BevelShadow_1" x="-20%" y="-20%" width="140%" height="140%">
      <feGaussianBlur in="SourceAlpha" result="blur" stdDeviation="4"/>
      <feOffset dx="4" dy="4" in="blur" result="offsetBlur"/>
      <feSpecularLighting in="blur" result="specOut" specularConstant="1" specularExponent="10" surfaceScale="5">
        <fePointLight x="-5000" y="-10000" z="-20000"/>
      </feSpecularLighting>
      <feComposite in="specOut" in2="SourceAlpha" operator="in" result="specOut"/>
      <feComposite in="SourceGraphic" in2="specOut" k1="0" k2="1" k3="1" k4="0" operator="arithmetic" result="litPaint"/>
      <feMerge>
        <feMergeNode in="offsetBlur"/>
        <feMergeNode in="litPaint"/>
      </feMerge>
    </filter>
  </defs>
  <g class="cls-2">
    <g id="_8C" data-name="8C">
      <path class="cls-1" d="m899.67,62.83c-51.82,3.85-102.14,16-150.04,36.25-45.87,19.41-87.98,45.54-125.58,77.93-10.75,9.26-11.31,25.74-1.27,35.78l24.02,24.01c9,9,23.39,9.59,33.09,1.36,61.31-52.05,138.69-85.75,223.65-92.62,12.65-1.02,22.36-11.67,22.36-24.36v-33.95c0-14.21-12.07-25.45-26.24-24.4Z"/>
    </g>
    <g id="_7C" data-name="7C">
      <path class="cls-1" d="m632.69,250.91l-24.02-24.01c-10.04-10.03-26.51-9.48-35.77,1.27-32.38,37.6-58.52,79.7-77.92,125.57-20.26,47.9-32.41,98.22-36.26,150.04-1.05,14.17,10.19,26.24,24.4,26.24h33.96c12.7,0,23.34-9.71,24.36-22.36,6.87-84.96,40.57-162.34,92.62-223.65,8.24-9.7,7.64-24.1-1.36-33.1Z"/>
    </g>
    <g id="_6C" data-name="6C">
      <path class="cls-1" d="m634.05,795.99c-52.05-61.31-85.75-138.69-92.62-223.65-1.02-12.65-11.67-22.36-24.36-22.36h-33.96c-14.21,0-25.45,12.07-24.4,26.24,3.85,51.82,16,102.14,36.26,150.04,19.4,45.86,45.54,87.96,77.92,125.57,9.26,10.75,25.74,11.31,35.78,1.27l24.02-24.01c9-9,9.6-23.4,1.36-33.1Z"/>
    </g>
    <g id="_5C" data-name="5C">
      <path class="cls-1" d="m903.55,934.47c-84.96-6.87-162.34-40.57-223.65-92.62-9.7-8.23-24.1-7.64-33.09,1.36l-24.02,24.01c-10.04,10.03-9.48,26.52,1.27,35.78,37.6,32.38,79.71,58.52,125.58,77.92,47.9,20.26,98.22,32.41,150.04,36.26,14.17,1.05,26.24-10.19,26.24-24.4v-33.95c0-12.7-9.71-23.34-22.36-24.36Z"/>
    </g>
    <g id="_4C" data-name="4C">
      <path class="cls-1" d="m1249,867.22l-24.01-24.01c-9-9-23.4-9.6-33.1-1.36-61.31,52.05-138.69,85.75-223.65,92.62-12.65,1.02-22.36,11.67-22.36,24.36v33.95c0,14.21,12.07,25.45,26.24,24.4,51.82-3.85,102.14-16,150.04-36.26,45.86-19.4,87.97-45.54,125.57-77.92,10.75-9.26,11.31-25.74,1.27-35.78Z"/>
    </g>
    <g id="_3C" data-name="3C">
      <path class="cls-1" d="m1388.67,549.98h-33.95c-12.7,0-23.34,9.71-24.36,22.36-6.87,84.96-40.57,162.34-92.62,223.65-8.24,9.7-7.64,24.1,1.36,33.1l24.01,24c10.04,10.03,26.51,9.48,35.78-1.27,32.38-37.6,58.52-79.7,77.92-125.57,20.26-47.89,32.41-98.21,36.26-150.03,1.05-14.17-10.19-26.24-24.4-26.24Z"/>
    </g>
    <g id="_2C" data-name="2C">
      <path class="cls-1" d="m1413.07,503.78c-3.85-51.82-16-102.14-36.26-150.04-19.4-45.87-45.54-87.97-77.92-125.57-9.26-10.75-25.74-11.31-35.78-1.27l-24.01,24.01c-9,9-9.6,23.39-1.36,33.1,52.05,61.31,85.75,138.69,92.62,223.65,1.02,12.65,11.67,22.36,24.36,22.36h33.95c14.21,0,25.45-12.07,24.4-26.24Z"/>
    </g>
    <g id="_1C" data-name="1C">
      <path class="cls-1" d="m1247.73,177.01c-37.6-32.38-79.71-58.52-125.57-77.93-47.9-20.25-98.22-32.4-150.04-36.25-14.17-1.05-26.24,10.19-26.24,24.4v33.95c0,12.7,9.71,23.34,22.36,24.36,84.96,6.87,162.34,40.57,223.65,92.62,9.7,8.24,24.1,7.64,33.1-1.36l24.01-24.01c10.04-10.04,9.48-26.52-1.27-35.78Z"/>
    </g>
    <path class="cls-1" d="m584.69,530.33c-8.54,0-16.67-3.64-22.36-10-5.69-6.36-8.4-14.85-7.45-23.33,3.98-35.66,12.97-70.56,26.71-103.73,13.74-33.18,32.07-64.22,54.48-92.29,5.33-6.67,13.25-10.76,21.77-11.23.56-.03,1.12-.05,1.67-.05,7.93,0,15.57,3.15,21.21,8.79l26.08,26.08c10.68,10.68,11.75,27.65,2.5,39.59-31.47,40.62-51.52,89.01-57.98,139.94-1.9,14.99-14.65,26.23-29.76,26.23h-36.87Z"/>
    <path class="cls-1" d="m741.69,319.69c-7.72,0-15.4-2.97-21.22-8.79l-26.08-26.08c-6.04-6.04-9.22-14.36-8.74-22.89.48-8.52,4.56-16.44,11.23-21.77,28.06-22.41,59.11-40.74,92.28-54.48,33.17-13.74,68.07-22.73,103.73-26.71,1.11-.12,2.23-.19,3.33-.19,7.34,0,14.47,2.69,20,7.64,6.36,5.69,10,13.82,10,22.36v36.87c0,15.11-11.24,27.86-26.23,29.76-50.93,6.46-99.32,26.5-139.94,57.98-5.44,4.21-11.92,6.29-18.37,6.29Z"/>
    <path class="cls-1" d="m1130.1,319.69c-6.45,0-12.93-2.07-18.37-6.29-40.62-31.47-89.01-51.52-139.94-57.98-14.99-1.9-26.23-14.65-26.23-29.76v-36.87c0-8.54,3.64-16.67,10-22.36,5.53-4.94,12.66-7.64,20-7.64,1.11,0,2.22.06,3.33.19,35.66,3.98,70.56,12.97,103.73,26.71,33.17,13.74,64.22,32.07,92.28,54.48,6.67,5.33,10.76,13.25,11.23,21.77.48,8.52-2.7,16.85-8.74,22.89l-26.08,26.08c-5.82,5.82-13.5,8.79-21.22,8.79Z"/>
    <path class="cls-1" d="m1250.23,530.33c-15.11,0-27.86-11.24-29.76-26.23-6.46-50.93-26.5-99.32-57.98-139.94-9.25-11.94-8.18-28.9,2.5-39.59l26.08-26.08c5.64-5.64,13.28-8.79,21.21-8.79.56,0,1.11.02,1.67.05,8.52.48,16.44,4.56,21.77,11.23,22.41,28.06,40.74,59.11,54.48,92.29,13.74,33.17,22.73,68.07,26.71,103.73.95,8.48-1.76,16.97-7.45,23.33-5.69,6.36-13.82,10-22.36,10h-36.87Z"/>
    <path class="cls-1" d="m1212.28,790.29c-7.93,0-15.57-3.15-21.21-8.79l-26.08-26.08c-10.68-10.68-11.75-27.65-2.5-39.59,31.47-40.62,51.52-89.01,57.98-139.94,1.9-14.99,14.65-26.23,29.76-26.23h36.87c8.54,0,16.67,3.64,22.36,10,5.69,6.36,8.4,14.85,7.45,23.33-3.98,35.66-12.97,70.56-26.71,103.73-13.74,33.17-32.07,64.22-54.48,92.29-5.33,6.67-13.25,10.76-21.77,11.23-.56.03-1.12.05-1.67.05Z"/>
    <path class="cls-1" d="m975.56,921.21c-7.34,0-14.47-2.7-20-7.64-6.36-5.69-10-13.82-10-22.36v-36.87c0-15.11,11.24-27.86,26.23-29.76,50.93-6.46,99.32-26.5,139.94-57.98,5.44-4.21,11.92-6.29,18.37-6.29,7.72,0,15.4,2.97,21.22,8.79l26.08,26.08c6.04,6.04,9.22,14.36,8.74,22.89-.48,8.52-4.56,16.44-11.23,21.77-28.06,22.41-59.11,40.74-92.29,54.48-33.17,13.74-68.07,22.73-103.73,26.71-1.11.12-2.22.19-3.33.19Z"/>
    <path class="cls-1" d="m896.23,921.21c-1.11,0-2.22-.06-3.33-.19-35.66-3.98-70.56-12.97-103.73-26.71-33.17-13.74-64.22-32.07-92.29-54.48-6.67-5.33-10.76-13.25-11.23-21.77-.48-8.52,2.7-16.85,8.74-22.88l26.08-26.08c5.82-5.82,13.5-8.79,21.22-8.79,6.45,0,12.93,2.07,18.37,6.29,40.62,31.47,89.01,51.52,139.94,57.98,14.99,1.9,26.23,14.65,26.23,29.76v36.87c0,8.54-3.64,16.67-10,22.36-5.53,4.95-12.66,7.64-20,7.64Z"/>
    <path class="cls-1" d="m659.51,790.29c-.56,0-1.11-.02-1.67-.05-8.52-.48-16.44-4.56-21.77-11.23-22.41-28.06-40.74-59.11-54.48-92.29-13.74-33.17-22.73-68.07-26.71-103.73-.95-8.48,1.76-16.97,7.45-23.33,5.69-6.36,13.82-10,22.36-10h36.87c15.11,0,27.86,11.24,29.76,26.23,6.46,50.93,26.5,99.32,57.98,139.94,9.25,11.94,8.18,28.9-2.5,39.59l-26.08,26.08c-5.64,5.64-13.28,8.79-21.21,8.79Z"/>
    <circle class="cls-1" cx="935.9" cy="540" r="106.51" transform="translate(-107.72 819.94) rotate(-45)"/>
    <g id="_8A" data-name="8A">
      <path class="cls-1" d="m862.88,441.54c-7.77,0-15.44-3.01-21.22-8.79l-68.73-68.73c-6.23-6.23-9.41-14.88-8.69-23.66.72-8.78,5.26-16.8,12.42-21.93,34.04-24.42,73.87-40.92,115.17-47.71,1.62-.27,3.25-.4,4.87-.4,7.06,0,13.95,2.49,19.41,7.13,6.71,5.7,10.59,14.06,10.59,22.87v97.2c0,13.53-9.06,25.39-22.12,28.95-9.36,2.55-18.38,6.29-26.81,11.11-4.66,2.66-9.79,3.96-14.89,3.96Z"/>
    </g>
    <path class="cls-1" d="m696.22,530.8c-8.81,0-17.17-3.87-22.87-10.59s-8.16-15.6-6.73-24.29c6.8-41.3,23.3-81.13,47.72-115.17,5.13-7.16,13.15-11.7,21.93-12.42.82-.07,1.63-.1,2.45-.1,7.92,0,15.56,3.14,21.21,8.79l68.73,68.73c9.57,9.57,11.55,24.37,4.82,36.12-4.82,8.43-8.56,17.45-11.11,26.81-3.56,13.06-15.41,22.12-28.95,22.12h-97.2Z"/>
    <path class="cls-1" d="m738.71,711.76c-.81,0-1.63-.03-2.45-.1-8.78-.72-16.8-5.26-21.93-12.42-24.42-34.04-40.92-73.87-47.72-115.17-1.43-8.69,1.03-17.57,6.73-24.29,5.7-6.71,14.06-10.59,22.87-10.59h97.2c13.53,0,25.39,9.06,28.95,22.12,2.55,9.37,6.29,18.38,11.11,26.81,6.73,11.75,4.75,26.55-4.82,36.12l-68.73,68.73c-5.65,5.65-13.29,8.79-21.21,8.79Z"/>
    <path class="cls-1" d="m896.7,809.68c-1.62,0-3.25-.13-4.88-.4-41.31-6.8-81.13-23.3-115.17-47.72-7.16-5.13-11.7-13.15-12.42-21.93-.72-8.78,2.46-17.43,8.69-23.66l68.73-68.73c5.78-5.78,13.46-8.79,21.22-8.79,5.1,0,10.23,1.3,14.89,3.96,8.42,4.82,17.44,8.56,26.8,11.11,13.06,3.56,22.12,15.41,22.12,28.95v97.21c0,8.81-3.87,17.17-10.59,22.87-5.46,4.63-12.35,7.13-19.41,7.13Z"/>
    <path class="cls-1" d="m975.09,809.68c-7.06,0-13.95-2.49-19.41-7.13-6.71-5.7-10.59-14.06-10.59-22.87v-97.21c0-13.53,9.06-25.39,22.12-28.95,9.36-2.55,18.38-6.29,26.81-11.11,4.66-2.67,9.79-3.96,14.89-3.96,7.76,0,15.45,3.01,21.22,8.79l68.73,68.73c6.23,6.23,9.41,14.88,8.69,23.66-.72,8.78-5.26,16.8-12.42,21.93-34.04,24.42-73.87,40.92-115.17,47.72-1.62.27-3.25.4-4.87.4Z"/>
    <path class="cls-1" d="m1133.08,711.76c-7.92,0-15.56-3.14-21.21-8.79l-68.73-68.73c-9.57-9.57-11.55-24.37-4.82-36.12,4.82-8.42,8.56-17.44,11.11-26.81,3.56-13.06,15.41-22.12,28.95-22.12h97.2c8.81,0,17.17,3.87,22.87,10.59s8.16,15.6,6.73,24.29c-6.8,41.31-23.3,81.13-47.72,115.17-5.13,7.16-13.15,11.7-21.93,12.42-.82.07-1.63.1-2.45.1Z"/>
    <path class="cls-1" d="m1078.38,530.8c-13.53,0-25.39-9.06-28.95-22.12-2.55-9.37-6.29-18.39-11.11-26.81-6.72-11.75-4.75-26.54,4.82-36.12l68.73-68.73c5.65-5.65,13.29-8.79,21.21-8.79.81,0,1.63.03,2.45.1,8.78.72,16.8,5.26,21.93,12.42,24.41,34.04,40.91,73.86,47.72,115.17,1.43,8.69-1.03,17.57-6.73,24.29s-14.06,10.59-22.87,10.59h-97.2Z"/>
    <path class="cls-1" d="m1008.91,441.54c-5.1,0-10.23-1.3-14.89-3.96-8.42-4.82-17.44-8.56-26.81-11.11-13.06-3.56-22.12-15.41-22.12-28.95v-97.2c0-8.81,3.87-17.17,10.59-22.87,5.46-4.64,12.35-7.13,19.41-7.13,1.62,0,3.25.13,4.88.4,41.3,6.8,81.13,23.3,115.17,47.71,7.16,5.13,11.7,13.15,12.42,21.93s-2.46,17.43-8.69,23.66l-68.73,68.73c-5.78,5.78-13.46,8.79-21.22,8.79Z"/>
  </g>
</svg>